<svg height="507pt" viewBox="-48 0 507 507.278" width="507pt" xmlns="http://www.w3.org/2000/svg"><path d="m302.15625 196.679688-201.5 16.898437c0 .300781 0 .5.097656.800781-.097656.097656-.097656.097656 0 .199219-.097656.300781-.097656.699219 0 1 0 .101563 0 .199219.101563.300781-1.101563-1.300781-2.199219-2.601562-3.199219-4-10.402344-14.601562-17.902344-31.101562-22.203125-48.5-25.199219-92.300781 33.601563-109.101562 33.601563-109.101562-5.800782-5.800782-19.398438-3.597656-27.398438-1.699219-3.300781.800781-5.5 1.5-6 1.601563.796875-1 1.597656-1.902344 2.5-2.902344 11.898438-14.300782 28.5-24.097656 46.796875-27.398438 8.101563-1.402344 16.402344-1.402344 24.5-.101562 6.300781.902344 12.5 2.699218 18.402344 5.300781 11.699219-10.5 26.097656-17.300781 41.5-19.800781 50.898437-7.800782 104.800781 34.300781 117.898437 86.699218 16.402344 65.402344-22.5 99.402344-25.097656 100.703126zm0 0" fill="#cad9fc"/><path d="m276.953125 196.679688-179.398437 15c-10.398438-14.601563-17.898438-31.101563-22.199219-48.5-25.199219-92.300782 33.597656-109.101563 33.597656-109.101563-5.796875-5.800781-19.398437-3.601563-27.398437-1.699219-1.101563-.601562-2.300782-1-3.5-1.300781 11.898437-14.300781 28.5-24.101563 46.800781-27.398437 6.097656.898437 12.097656 2.699218 17.699219 5.199218 2.300781-1.902344 4.5-3.699218 6.800781-5.300781 6.300781.898437 12.5 2.699219 18.398437 5.300781 11.800782-10.300781 26.199219-17.101562 41.601563-19.601562 45 8.699218 81.097656 42.402344 92.699219 86.699218 16.398437 65.402344-22.5 99.402344-25.101563 100.703126zm0 0" fill="#e8edfc"/><path d="m142.554688 347.777344 25.199218 151.101562h-150.800781c-2.296875 0-4.5-.902344-6.097656-2.5-1.601563-1.601562-2.5-3.800781-2.402344-6.101562 3.402344-79.398438 53.601563-142.5 134.101563-142.5zm0 0" fill="#e8edfc"/><path d="m402.554688 490.277344c.101562 2.300781-.699219 4.5-2.300782 6.101562-1.597656 1.597656-3.800781 2.5-6.097656 2.5h-159.203125l24.800781-149 .300782-2.101562c80.601562 0 138.601562 63.101562 142.5 142.5zm0 0" fill="#cad9fc"/><path d="m377.355469 490.277344c.097656 2.300781-.699219 4.5-2.300781 6.101562-1.601563 1.597656-3.800782 2.5-6.101563 2.5h-134l24.800781-149c67.402344 11.398438 114.199219 69.398438 117.601563 140.398438zm0 0" fill="#e8edfc"/><path d="m260.15625 372.976562v125.902344h-117.601562v-125.902344s9.101562-88.796874 30.5-59.597656c7.101562 9.898438 15.898437 18.5 25.898437 25.300782 1.5.796874 3.203125.796874 4.703125 0 10.097656-6.902344 18.796875-15.5 25.898438-25.300782 21.5-29.199218 30.601562 59.597656 30.601562 59.597656zm0 0" fill="#cad9fc"/><path d="m260.15625 314.277344v33.601562l-58.800781 8.398438-58.800781-8.398438v-33.601562c16.5 12.402344 36.800781 8.402344 58.800781 8.402344 19.097656 0 37.199219 5.699218 52.398437-3.902344 2.199219-1.5 4.300782-3 6.402344-4.5zm0 0" fill="#e8edfc"/><path d="m260.15625 294.476562v19.800782c-2.101562 1.601562-4.203125 3-6.402344 4.402344-34.300781 21.898437-78.699218 20.097656-111.097656-4.402344v-19.699219c16.5 12.398437 36.796875 11.300781 58.796875 11.300781 18.703125-.5 36.902344-6.402344 52.402344-16.800781 2.097656-1.5 4.199219 7 6.300781 5.398437zm0 0" fill="#cad9fc"/><path d="m301.953125 212.277344c.101563.101562.101563.199218 0 .300781v1.699219c-.097656 1.5-.199219 3-.296875 4.5v.101562c.097656.097656.097656.199219 0 .300782-2.800781 20.796874-20.601562 36.296874-41.5 36.296874-4.300781 0-8.601562-.699218-12.703125-1.898437-17.398437-5.5-29.296875-21.699219-29.296875-40s11.796875-34.5 29.296875-40c4.101563-1.300781 8.402344-1.898437 12.703125-1.898437 22.597656-.101563 41.199219 17.898437 41.796875 40.597656zm0 0" fill="#cad9fc"/><path d="m301.65625 219.179688c-.902344 9.5-3 18.898437-6.402344 27.898437-6.898437 18.898437-19.097656 35.300781-35.199218 47.398437-2.101563 1.601563-4.199219 3-6.398438 4.402344-15.703125 10-33.800781 15.300782-52.402344 15.300782-4.199218 0-8.5-.300782-12.699218-.800782-16.699219-2.199218-32.601563-8.699218-46.101563-18.902344-.597656-.398437-1.199219-.796874-1.699219-1.296874-13-10.203126-23.300781-23.300782-30.199218-38.402344-1.199219-2.5-2.300782-5.097656-3.300782-7.800782-3.300781-9-5.5-18.296874-6.398437-27.898437 2.199219 16.101563 13.5 29.5 29 34.300781 4 1.300782 8.300781 1.898438 12.5 1.898438 23.199219 0 42-18.800782 42-42 .300781-2.5 1.898437-4.699219 4.199219-5.800782 3.898437-2 8.199218-2.898437 12.601562-2.597656 16.796875 0 16.796875 8.398438 16.796875 8.398438 0 18.300781 11.800781 34.5 29.300781 40 4.101563 1.300781 8.402344 1.902344 12.699219 1.902344 2.300781 0 4.601563-.203126 6.800781-.601563 18.300782-2.601563 32.402344-17.101563 34.902344-35.398437zm0 0" fill="#cad9fc"/><path d="m266.953125 254.878906c-7.199219 15.597656-18.199219 29.199219-32 39.597656-2.097656 1.601563-4.199219 3-6.398437 4.402344-12.101563 7.699219-25.699219 12.597656-39.898438 14.398438-16.703125-2.199219-32.601562-8.699219-46.101562-18.898438-.601563-.402344-1.199219-.800781-1.699219-1.300781-13-10.199219-23.300781-23.300781-30.199219-38.398437 2.199219.398437 4.5.597656 6.699219.597656 4.300781 0 8.597656-.699219 12.699219-1.898438 4 1.300782 8.300781 1.898438 12.5 1.898438 23.199218 0 42-18.800782 42-42 .300781-2.5 1.898437-4.699219 4.199218-5.800782 2.300782 1.101563 3.902344 3.300782 4.199219 5.800782 0 23.199218 18.800781 42 42 42 4.203125 0 8.5-.597656 12.5-1.898438 4.101563 1.300782 8.402344 1.898438 12.703125 1.898438 2.199219.199218 4.5 0 6.796875-.398438zm0 0" fill="#e8edfc"/><path d="m105.355469 141.476562c-1.300781 2.902344-2.5 5.800782-3.402344 8.800782-.699219 2-2.699219 3.199218-4.796875 2.800781.597656-15.800781 3.5-16.101563 3.5-16.101563.296875.300782.597656.703126.898438 1 1.199218 1.203126 2.5 2.402344 3.800781 3.5zm0 0" fill="#cad9fc"/><path d="m130.054688 173.476562c-17.101563 5.300782-28.898438 20.902344-29.398438 38.800782-.101562.101562-.101562.199218 0 .300781-.101562.300781-.101562.601563-.101562.898437-1.699219-15-2.699219-27.199218-3.199219-36.796874 6.097656-3.402344 13-5.101563 20-5.101563 4.398437 0 8.597656.601563 12.699219 1.898437zm0 0" fill="#cad9fc"/><path d="m188.753906 207.679688c-2.300781 1.097656-3.898437 3.296874-4.199218 5.796874 0-2.597656-.300782-5.097656-.800782-7.597656 1.800782.300782 3.5.898438 5 1.800782zm0 0" fill="#cad9fc"/><path d="m302.15625 196.679688-.101562 12.699218c0 1 0 1.898438-.101563 2.898438-.398437-15.097656-8.898437-28.800782-22.199219-35.800782 1.300782-13.597656.300782-27.398437-2.898437-40.699218-1-3.699219-2.300781-7.199219-3.902344-10.699219 2.300781-4.300781 3.703125-9 4.300781-13.800781.101563-1.5 1-2.800782 2.300782-3.398438 1.300781-.699218 2.898437-.601562 4.101562.300782 9.296875 6.597656 15.898438 16.5 18.296875 27.699218 4.300781 19.898438 4.300781 40.699219.203125 60.800782zm0 0" fill="#cad9fc"/><path d="m279.753906 176.378906c-6-3.199218-12.800781-4.902344-19.597656-4.902344-4.300781 0-8.601562.703126-12.703125 1.902344-17.398437 5.5-29.296875 21.699219-29.296875 40 0 0 0-8.402344-16.800781-8.402344-2.601563-.097656-5.101563.203126-7.601563.800782-1.699218.300781-3.398437.902344-5 1.800781-1.5-.898437-3.199218-1.5-5-1.800781-3.597656-19.898438-21-34.398438-41.199218-34.300782-4.199219 0-8.5.601563-12.5 1.902344-4.101563-1.300781-8.398438-1.902344-12.699219-1.902344-7 0-13.902344 1.703126-20 5.101563-.601563-7.800781-.699219-15.699219-.300781-23.601563 2.101562.402344 4.101562-.796874 4.800781-2.796874 1-3 2.097656-5.902344 3.398437-8.800782 4.800782 4.398438 10.101563 8.199219 15.902344 11.199219 1.097656.5 2.398438.601563 3.5.101563 1.097656-.5 2-1.402344 2.398438-2.601563 6.101562-21 22.199218-37.699219 43.101562-44.398437 1.898438-.601563 3.898438-1.101563 6-1.5 28.796875-5.703126 45.699219 24.097656 53.597656 43.296874 1.5 3.902344 2.800782 7.300782 3.601563 10 .398437 1.300782 1.398437 2.300782 2.597656 2.703126 1.300781.398437 2.601563.199218 3.703125-.5 13.699219-8.800782 25.097656-20.703126 33.296875-34.800782 1.601563 3.398438 2.902344 7 3.902344 10.699219 3.199219 13.398437 4.199219 27.199219 2.898437 40.800781zm0 0" fill="#e8edfc"/><path d="m193.753906 205.878906c-.5 2.5-.800781 5.097656-.800781 7.597656-.296875-2.5-1.898437-4.699218-4.199219-5.796874 1.5-.902344 3.199219-1.5 5-1.800782zm0 0" fill="#cad9fc"/><path d="m260.15625 372.976562v76.300782c-12.902344 23.101562-33.800781 40.699218-58.800781 49.601562-24.902344-8.902344-45.800781-26.5-58.800781-49.601562v-76.300782c6.398437 23.402344 16.699218 45.601563 30.5 65.601563 7.101562 9.898437 15.898437 18.5 25.898437 25.300781 1.5.800782 3.203125.800782 4.703125 0 10.097656-6.902344 18.796875-15.5 25.898438-25.300781 13.898437-20 24.199218-42.199219 30.601562-65.601563zm0 0" fill="#e8edfc"/><path d="m260.15625 347.777344v25.199218c-6.402344 23.402344-16.703125 45.601563-30.5 65.601563l-.101562-.101563-11.398438-57.097656 6.5-6.5c.5-.402344.699219-1.101562.699219-1.699218 0-.601563-.402344-1.203126-.902344-1.601563l-21.898437-14.601563c-.300782-.199218-.800782-.398437-1.199219-.296874v-.402344zm0 0" fill="#f5f5f5"/><path d="m229.65625 438.578125c-7.101562 9.898437-15.902344 18.5-25.902344 25.300781-1.5.800782-3.199218.800782-4.699218 0-10.101563-6.902344-18.800782-15.5-25.898438-25.300781l.097656-.101563 11.402344-57.097656 15.296875 15.300782c.402344.398437.902344.597656 1.5.597656.601563 0 1.101563-.199219 1.5-.597656l15.300781-15.300782zm0 0" fill="#e8edfc"/><path d="m201.355469 356.179688v.398437c-.402344 0-.800781.101563-1.199219.300781l-21.902344 14.597656c-.5.402344-.898437.902344-.898437 1.601563 0 .601563.199219 1.300781.699219 1.699219l6.5 6.5-11.398438 57.101562-.101562.097656c-13.800782-20-24.101563-42.097656-30.5-65.597656v-25.199218zm0 0" fill="#f5f5f5"/><path d="m224.65625 374.878906-21.800781 21.800782c-.402344.398437-.902344.597656-1.5.597656-.601563 0-1.101563-.199219-1.5-.597656l-21.800781-21.800782c-.5-.402344-.699219-1.101562-.699219-1.699218 0-.601563.398437-1.203126.898437-1.601563l21.902344-14.601563c.699219-.398437 1.597656-.398437 2.398438 0l21.898437 14.601563c.5.398437.902344.898437.902344 1.601563 0 .597656-.199219 1.199218-.699219 1.699218zm0 0" fill="#cad9fc"/><path d="m189.15625 176.777344c-.300781 0-.601562 0-1-.097656-2.203125-.300782-4.203125-1.402344-5.601562-3.101563-1.398438-1.699219-2-4-1.800782-6.199219l1.300782-11.699218-11.800782-4.5c-3.898437-1.5-6.597656-5.203126-6.699218-9.402344l-.300782-8.800782c-.097656-2.199218.699219-4.398437 2.199219-6 1.5-1.597656 3.601563-2.597656 5.800781-2.699218 2.199219-.097656 4.402344.699218 6.101563 2.199218 1.597656 1.5 2.597656 3.703126 2.597656 5.902344l.203125 4.597656 12.5 4.800782c4.5 1.699218 7.199219 6.199218 6.699219 11l-1.902344 16.601562c-.5 4.199219-4.097656 7.398438-8.296875 7.398438zm0 0" fill="#428dff"/><path d="m184.554688 213.476562c0 23.203126-18.800782 42-42 42-4.199219 0-8.5-.597656-12.5-1.898437-15.5-4.800781-26.800782-18.199219-29-34.300781-.101563-.097656-.101563-.199219 0-.300782v-.097656c-.101563-1-.199219-1.902344-.300782-2.902344v-.097656-.101562c-.097656-.097656-.097656-.199219-.097656-.300782-.101562-.296874-.101562-.699218 0-1-.101562-.097656-.101562-.097656 0-.199218v-1.699219c-.101562-.101563-.101562-.199219 0-.300781.5-17.898438 12.296875-33.398438 29.398438-38.800782 4-1.296874 8.300781-1.898437 12.5-1.898437 23.199218 0 42 18.800781 42 41.898437zm0 0" fill="#cad9fc"/><path d="m225.554688 205.179688h-.101563c.402344 0 .703125-.101563 1.101563-.101563-.398438 0-.699219.101563-1 .101563zm0 0" fill="#fff"/><path d="m292.054688 254.878906c-2.199219.398438-4.5.597656-6.699219.597656 2.199219 0 4.398437-.199218 6.699219-.597656zm0 0" fill="#fff"/><path d="m220.855469 205.578125c-.5.101563-1.101563.101563-1.5.300781.398437-.199218 1-.199218 1.5-.300781zm0 0" fill="#fff"/><path d="m125.855469 213.476562c0 .300782 0 .5.097656.800782zm0 0" fill="#fff"/><path d="m209.054688 206.578125c.398437 2.300781.699218 4.601563.699218 7 0-2.398437-.300781-4.699219-.699218-7zm0 0" fill="#fff"/><path d="m103.253906 51.078125c11.902344-14.300781 28.402344-24 46.699219-27.398437-.199219 0-.398437-.101563-.597656-.101563-8.101563-1.398437-16.402344-1.300781-24.5.101563-18.300781 3.398437-34.902344 13.097656-46.800781 27.398437-.898438.898437-1.699219 1.800781-2.5 2.898437.5-.097656 2.800781-.796874 6-1.597656 7.101562-2 14.5-2.5 21.699218-1.300781zm0 0" fill="#fff"/><path d="m33.65625 490.277344c3.398438-79.398438 53.597656-142.398438 134.097656-142.398438v-53.300781c-.597656-.398437-1.199218-.800781-1.699218-1.300781-13-10.199219-23.300782-23.300782-30.199219-38.398438-1.199219-2.5-2.300781-5.101562-3.300781-7.800781-3.300782-9-5.5-18.300781-6.398438-27.898437-.101562-.101563-.101562-.203126 0-.300782v-.101562c-.101562-1-.203125-1.898438-.300781-2.898438v-.101562-.097656c-1.101563-1.300782-2.199219-2.601563-3.199219-4-10.402344-14.601563-17.902344-31.101563-22.203125-48.5-25.199219-92.300782 33.601563-109.101563 33.601563-109.101563-5.800782-5.800781-19.398438-3.601563-27.398438-1.699219.796875.398438 1.597656 1 2.296875 1.699219 0 0-58.796875 16.800781-33.597656 109.101563 4.199219 17.398437 11.800781 33.898437 22.199219 48.5 1 1.398437 2.101562 2.796874 3.199218 4v.097656.101562c.101563 1 .199219 1.898438.300782 2.898438v.101562c-.101563.097656-.101563.199219 0 .300782.898437 9.5 3 18.898437 6.398437 27.898437 1 2.699219 2.101563 5.300781 3.300781 7.800781 6.902344 15 17.199219 28.199219 30.199219 38.398438.5.402344 1.101563.800781 1.703125 1.300781v53.300781c-80.601562 0-130.800781 63-134.101562 142.398438-.101563 2.300781.800781 4.5 2.398437 6.101562 1.601563 1.597656 3.800781 2.5 6.101563 2.5h25.199218c-2.300781 0-4.5-.902344-6.097656-2.5-1.703125-1.699218-2.601562-3.902344-2.5-6.101562zm67.097656-276.800782v.800782c-.097656-.300782-.097656-.5 0-.800782zm0 0" fill="#fff"/><path d="m.15625 489.878906c.898438-38.601562 14.796875-75.800781 39.597656-105.5 12.800782-14.601562 28.699219-26.199218 46.601563-33.800781 17.800781-7.5 37-11.300781 56.300781-11.199219v16.800782c-17-.101563-33.902344 3.296874-49.703125 9.796874-15.597656 6.703126-29.5 16.703126-40.699219 29.5-22.199218 26.800782-34.699218 60.300782-35.398437 95.101563zm0 0" fill="#fff"/><g fill="#428dff"><path d="m14.953125 448.878906c-2.199219-.601562-4.5-.199218-6.398437 1-1.898438 1.199219-3.300782 3.097656-3.699219 5.300782-2.5 11.398437-4.101563 23-4.699219 34.699218l16.796875.699219c.5-10.699219 2-21.300781 4.300781-31.699219.800782-4.402344-2-8.800781-6.300781-10zm0 0"/><path d="m142.554688 356.179688v-16.800782c-19.300782-.101562-38.5 3.699219-56.300782 11.199219-17.898437 7.601563-33.800781 19.199219-46.597656 33.800781l-5.601562 6.898438c-1.5 1.800781-2.101563 4.101562-1.800782 6.300781.300782 2.300781 1.601563 4.300781 3.5 5.601563 3.699219 2.5 8.699219 1.796874 11.5-1.601563l5-6.101563c11.199219-12.796874 25.101563-22.898437 40.699219-29.5 15.703125-6.5 32.601563-9.898437 49.601563-9.796874zm0 0"/><path d="m15.855469 421.777344c-.902344 2.101562-1 4.5-.199219 6.699218l.796875 1.402344c.300781.5.703125.898438 1.101563 1.300782.300781.398437.800781.699218 1.199218 1 .5.296874 1 .5 1.5.796874 2.101563.800782 4.402344.800782 6.5 0 4.101563-1.699218 6.199219-6.296874 4.699219-10.398437-.398437-1-.898437-1.898437-1.699219-2.800781-2.199218-2.597656-5.800781-3.699219-9-2.597656-2.199218.796874-4 2.398437-4.898437 4.597656zm0 0"/><path d="m394.15625 507.277344h-377.203125c-4.597656 0-9-1.898438-12.199219-5.199219-3.097656-3.199219-4.800781-7.601563-4.597656-12.199219.097656-3 1.796875-5.800781 4.5-7.199218 2.699219-1.402344 5.898438-1.300782 8.5.398437 2.5 1.601563 4 4.5 3.796875 7.5l377.300781-.101563c-3.800781-77.5-59.898437-134-133.5-134.296874l-58.199218 8.296874c-.800782.101563-1.601563.101563-2.398438 0l-58.800781-8.398437c-4.601563-.699219-7.800781-4.898437-7.101563-9.5.699219-4.601563 4.902344-7.800781 9.5-7.101563l57.601563 8.203126 57.597656-8.203126c.402344-.097656.800781-.097656 1.203125-.097656 83.097656 0 146.597656 63.300782 150.898438 150.5.199218 4.5-1.398438 8.898438-4.5 12.199219-3.300782 3.300781-7.699219 5.199219-12.398438 5.199219zm0 0"/><path d="m260.15625 398.179688c-4.601562 0-8.402344-3.800782-8.402344-8.402344v-95.300782c0-4.597656 3.800782-8.398437 8.402344-8.398437 4.597656 0 8.398438 3.800781 8.398438 8.398437v95.300782c0 4.601562-3.800782 8.402344-8.398438 8.402344zm0 0"/><path d="m142.554688 398.179688c-4.601563 0-8.398438-3.800782-8.398438-8.402344v-95.300782c0-4.597656 3.796875-8.398437 8.398438-8.398437 4.601562 0 8.398437 3.800781 8.398437 8.398437v95.300782c0 4.601562-3.699219 8.402344-8.398437 8.402344zm0 0"/><path d="m142.554688 507.277344c-4.601563 0-8.398438-3.800782-8.398438-8.398438v-151.101562c0-4.597656 3.796875-8.398438 8.398438-8.398438 4.601562 0 8.398437 3.800782 8.398437 8.398438v151.101562c0 4.597656-3.699219 8.398438-8.398437 8.398438zm0 0"/><path d="m260.15625 507.277344c-4.601562 0-8.402344-3.800782-8.402344-8.398438v-151.101562c0-4.597656 3.800782-8.398438 8.402344-8.398438 4.597656 0 8.398438 3.800782 8.398438 8.398438v151.101562c0 4.597656-3.800782 8.398438-8.398438 8.398438zm0 0"/><path d="m201.355469 322.578125c-23.800781 0-46.902344-8-65.601563-22.800781-16.398437-12.898438-29-30.199219-36.199218-49.898438-4.800782-13-7.300782-26.800781-7.300782-40.699218 0-4.601563 3.800782-8.402344 8.402344-8.402344 4.597656 0 8.398438 3.800781 8.398438 8.402344 0 11.898437 2.101562 23.699218 6.199218 34.898437 6.199219 16.699219 16.800782 31.398437 30.800782 42.5 29.800781 23.5 71.199218 25.601563 103.101562 5.199219 17.597656-11.300782 31-28.097656 38.199219-47.699219 4.097656-11.199219 6.300781-23 6.300781-34.898437 0-4.601563 3.796875-8.402344 8.398438-8.402344 4.601562 0 8.398437 3.800781 8.398437 8.402344 0 13.898437-2.5 27.699218-7.296875 40.699218-8.5 23.097656-24.300781 42.699219-44.902344 56-17 11-36.699218 16.699219-56.898437 16.699219zm0 0"/><path d="m302.054688 144.277344c-2.199219 0-4.300782-.800782-5.898438-2.398438-1.601562-1.5-2.5-3.699218-2.5-5.902344v-.296874c0-4.601563 3.796875-8.402344 8.398438-8.402344 4.601562 0 8.398437 3.800781 8.398437 8.402344 0 4.699218-3.699219 8.5-8.398437 8.597656zm0 0"/><path d="m302.054688 217.679688c-4.601563 0-8.398438-3.800782-8.398438-8.402344v-12.597656c0-4.601563 3.796875-8.402344 8.398438-8.402344 4.601562 0 8.398437 3.800781 8.398437 8.402344v12.597656c0 4.699218-3.699219 8.402344-8.398437 8.402344zm0 0"/><path d="m201.355469 472.976562c-2.5 0-4.902344-.699218-6.902344-2-42.5-27.699218-59.296875-93.097656-60-95.898437-1-4.398437 1.703125-8.800781 6.203125-10 4.398438-1.101563 8.898438 1.5 10.097656 5.898437.199219.601563 15.300782 59.300782 50.601563 84.402344 35.398437-25 50.5-83.699218 50.597656-84.402344 1.203125-4.398437 5.703125-7 10.101563-5.898437 4.398437 1.101563 7.101562 5.5 6.199218 10-.699218 2.800781-17.5 68.199219-60 95.898437-2 1.203126-4.398437 2-6.898437 2zm0 0"/><path d="m201.355469 507.277344c-.902344 0-1.800781-.097656-2.699219-.398438-26.902344-9.5-49.402344-28.402344-63.300781-53.300781-1.5-2.601563-1.5-5.800781 0-8.398437 1.5-2.601563 4.199219-4.203126 7.199219-4.203126s5.800781 1.601563 7.300781 4.203126c11.898437 21.398437 31.097656 37.699218 54.199219 45.898437 3.898437 1.300781 6.300781 5.199219 5.601562 9.300781-.703125 4.097656-4.203125 6.898438-8.300781 6.898438zm0 0"/><path d="m201.355469 507.277344c-4.101563 0-7.601563-3-8.300781-7-.699219-4.097656 1.699218-8 5.601562-9.300782 23-8.199218 42.296875-24.5 54.199219-45.898437 2.300781-4 7.5-5.300781 11.5-3s5.300781 7.5 3 11.5c-13.902344 24.898437-36.402344 43.898437-63.300781 53.300781-.898438.300782-1.800782.398438-2.699219.398438zm0 0"/><path d="m173.15625 446.878906c-.601562 0-1.101562-.101562-1.703125-.199218-4.5-.902344-7.5-5.300782-6.597656-9.902344l11.398437-57.097656c.902344-4.5 5.300782-7.402344 9.902344-6.5 4.5.898437 7.5 5.296874 6.597656 9.796874l-11.398437 57.101563c-.800781 3.898437-4.199219 6.800781-8.199219 6.800781zm0 0"/><path d="m229.554688 446.878906c-4 0-7.398438-2.800781-8.199219-6.699218l-11.402344-57.101563c-.597656-3 .402344-6 2.703125-8 2.296875-2 5.398438-2.601563 8.296875-1.699219 2.902344 1 5 3.398438 5.5 6.398438l11.402344 57.101562c.898437 4.5-2 9-6.601563 9.898438-.597656 0-1.097656.101562-1.699218.101562zm0 0"/><path d="m201.355469 405.679688c-2.800781 0-5.5-1.101563-7.402344-3.101563l-21.898437-21.898437c-2.199219-2.203126-3.300782-5.300782-3-8.5.300781-3.101563 2-6 4.699218-7.703126l21.902344-14.597656c3.5-2.402344 8.199219-2.402344 11.699219 0l21.800781 14.597656c2.597656 1.703126 4.296875 4.601563 4.597656 7.703126.300782 3.097656-.800781 6.199218-3 8.5l-21.898437 21.898437c-2 2-4.699219 3.101563-7.5 3.101563zm-12-31.402344 12 12 12-12-12-8zm15.5-10.300782"/><path d="m100.753906 224.277344c-2.898437 0-5.597656-1.5-7.097656-3.898438-12.601562-16.300781-21.5-35-26.300781-55-13.902344-50.902344-3-80.5 8.699219-96.300781 2.199218-3 4.699218-5.898437 7.398437-8.5-1.796875.398437-3.597656.898437-5.296875 1.5-3.601562 1.199219-7.5-.101563-9.601562-3.199219-2.101563-3.101562-1.898438-7.199218.5-10.101562 37.5-45 82.199218-34.699219 97.300781-29.398438 24.300781-19 56.5-24.5 85.699219-14.402344 40.898437 13.902344 72.199218 47.402344 83.398437 89.101563 16 64.101563-18.199219 102-27.898437 109.199219-3.300782 2.699218-8.199219 2.5-11.300782-.5-1.597656-1.597656-2.5-3.699219-2.5-5.898438 0-2.199218.902344-4.402344 2.402344-5.902344.5-.5 1-.898437 1.597656-1.296874 1.5-1.203126 36.300782-31.703126 21.402344-91.5-9.703125-36.203126-36.800781-65.101563-72.203125-77.203126-25.398437-8.796874-53.5-3.296874-73.699219 14.402344-2.597656 2.199219-6.199218 2.597656-9.199218 1.097656-20.699219-9-44.398438-6.796874-63.101563 5.703126 5.203125.296874 10.203125 2.398437 14.101563 6 2.101562 2.097656 2.898437 5.199218 2.199218 8-.699218 2.898437-3 5.097656-5.800781 6-2 .597656-50.296875 16.199218-27.796875 98.796874 4.199219 18 12.296875 34.800782 23.699219 49.402344 1.300781 1.5 2 3.5 2 5.5-.199219 4.597656-3.902344 8.398438-8.601563 8.398438zm0 0"/><path d="m302.054688 205.078125c-2.699219 0-5.199219-1.300781-6.800782-3.398437-1.597656-2.203126-2-4.902344-1.300781-7.5 4.902344-26.203126 4.703125-59.101563-9.796875-74.800782-3.402344 12.199219-13.5 28.800782-39.703125 47.300782-3.296875 2.296874-7.5 2.898437-11.296875 1.699218-3.800781-1.300781-6.800781-4.300781-8-8.101562-4-12.597656-19.5-53.300782-47.5-47.597656-20.601562 4.5-37 20-42.800781 40.199218-1.101563 3.5-3.699219 6.398438-7.101563 7.800782-3.398437 1.398437-7.199218 1.296874-10.5-.402344-8.097656-4.199219-15.5-9.800782-21.800781-16.300782-.097656-.097656-.699219-.699218-.796875-.796874-3.101562-3.402344-2.902344-8.703126.296875-11.902344 1.5-1.5 3.601563-2.398438 5.703125-2.398438 2.097656 0 4.199219.800782 5.699219 2.300782.097656.097656.699219.796874.800781.898437 4 4.101563 8.5 7.800781 13.398438 10.898437 8.5-23.898437 28.898437-41.597656 53.800781-46.699218 27-5.398438 50.898437 14.5 64.898437 53.5 25.101563-19 29-33.597656 29.5-39.199219.402344-4.398437 3.101563-8.300781 7.101563-10.300781 3.898437-2 8.597656-1.699219 12.300781.800781 33.597656 22.199219 25.398438 79.800781 22.097656 96.898437-.300781 1.800782-1.199218 3.402344-2.398437 4.800782-1.300781 1.402344-3.5 2.300781-5.800781 2.300781zm-177-59.800781"/><path d="m142.554688 263.878906c-27.800782 0-50.398438-22.5-50.398438-50.402344 0-27.898437 22.5-50.398437 50.398438-50.398437 27.898437 0 50.398437 22.5 50.398437 50.398437 0 27.800782-22.597656 50.402344-50.398437 50.402344zm0-83.902344c-18.5 0-33.601563 15-33.601563 33.601563s15 33.601563 33.601563 33.601563c18.601562 0 33.601562-15 33.601562-33.601563s-15-33.601563-33.601562-33.601563zm0 0"/><path d="m260.15625 263.878906c-27.800781 0-50.402344-22.5-50.402344-50.402344 0-27.898437 22.5-50.398437 50.402344-50.398437 27.796875 0 50.398438 22.5 50.398438 50.398437-.101563 27.800782-22.601563 50.402344-50.398438 50.402344zm0-83.902344c-18.5 0-33.601562 15-33.601562 33.601563s15 33.601563 33.601562 33.601563c18.5 0 33.597656-15 33.597656-33.601563-.097656-18.601563-15.097656-33.601563-33.597656-33.601563zm0 0"/><path d="m218.15625 221.878906c-4 0-7.5-2.902344-8.203125-6.800781-2.597656-1.300781-5.597656-1.898437-8.5-1.601563-2.898437-.296874-5.898437.300782-8.5 1.601563-.796875 4.300781-4.699219 7.199219-9 6.800781-4.296875-.402344-7.597656-4-7.597656-8.402344 0-.699218.300781-16.796874 25.199219-16.796874 24.898437 0 25.199218 16.097656 25.199218 16.796874-.199218 4.703126-4 8.402344-8.597656 8.402344zm0 0"/><path d="m100.65625 221.878906c-4.300781 0-7.902344-3.199218-8.300781-7.5-8.601563-77.300781-1.101563-84.800781 7.300781-85.800781 3.5-.398437 6.898438 1.398437 8.5 4.601563 1.597656 3.199218 1 7-1.5 9.597656-.902344 3.101562-3.601562 17.101562 2.296875 69.800781.5 4.601563-2.796875 8.800781-7.398437 9.300781-.300782 0-.601563 0-.898438 0zm2.296875-76.902344c-.398437.101563-.898437.203126-1.296875.300782.5 0 .898438-.097656 1.296875-.300782zm0 0"/></g></svg>